Units are S.I. units (second, meters, Newtons, ...)
Angles are in degrees.
name walk
datarows 49
datacolumns 15
range 5.000000 5.774194
endheader
time exo_pelvis_tx exo_pelvis_ty exo_pelvis_tz exo_pelvis_tilt exo_pelvis_list exo_pelvis_rotation exo_hip_r exo_hip_l exo_knee_r exo_knee_l r_ankle_coupling l_ankle_coupling r_foot l_foot
5.000000	0.268255	0.933373	0.000000	0.000000	0.000000	0.000000	40.483310	2.555720	-57.019660	-12.979790	16.536350	10.422923	0.000000	0.000000
5.016129	0.270255	0.933438	0.000000	0.000000	0.000000	0.000000	40.151671	2.292126	-56.364711	-12.744819	16.213003	10.451548	0.000000	0.000000
5.032258	0.272255	0.933502	0.000000	0.000000	0.000000	0.000000	39.820031	2.028532	-55.709761	-12.509848	15.889656	10.480172	0.000000	0.000000
5.048387	0.274255	0.933567	0.000000	0.000000	0.000000	0.000000	39.488392	1.764937	-55.054812	-12.274877	15.566309	10.508797	0.000000	0.000000
5.064516	0.276255	0.933631	0.000000	0.000000	0.000000	0.000000	39.156753	1.501343	-54.399863	-12.039906	15.242962	10.537422	0.000000	0.000000
5.080645	0.278255	0.933696	0.000000	0.000000	0.000000	0.000000	38.825113	1.237749	-53.744913	-11.804935	14.919615	10.566046	0.000000	0.000000
5.096774	0.280255	0.933760	0.000000	0.000000	0.000000	0.000000	38.493474	0.974155	-53.089964	-11.569964	14.596267	10.594671	0.000000	0.000000
5.112903	0.282255	0.933825	0.000000	0.000000	0.000000	0.000000	38.161835	0.710561	-52.435015	-11.334993	14.272920	10.623295	0.000000	0.000000
5.129032	0.284255	0.933890	0.000000	0.000000	0.000000	0.000000	37.830195	0.446966	-51.780065	-11.100022	13.949573	10.651920	0.000000	0.000000
5.145161	0.286255	0.933954	0.000000	0.000000	0.000000	0.000000	37.498556	0.183372	-51.125116	-10.865051	13.626226	10.680545	0.000000	0.000000
5.161290	0.288255	0.934019	0.000000	0.000000	0.000000	0.000000	37.166916	-0.080222	-50.470166	-10.630080	13.302879	10.709169	0.000000	0.000000
5.177419	0.290255	0.934083	0.000000	0.000000	0.000000	0.000000	36.835277	-0.343816	-49.815217	-10.395109	12.979532	10.737794	0.000000	0.000000
5.193548	0.292255	0.934148	0.000000	0.000000	0.000000	0.000000	36.503638	-0.607410	-49.160268	-10.160138	12.656185	10.766419	0.000000	0.000000
5.209677	0.294255	0.934212	0.000000	0.000000	0.000000	0.000000	36.171998	-0.871005	-48.505318	-9.925167	12.332838	10.795043	0.000000	0.000000
5.225806	0.296255	0.934277	0.000000	0.000000	0.000000	0.000000	35.840359	-1.134599	-47.850369	-9.690196	12.009491	10.823668	0.000000	0.000000
5.241935	0.298255	0.934341	0.000000	0.000000	0.000000	0.000000	35.508720	-1.398193	-47.195420	-9.455225	11.686144	10.852292	0.000000	0.000000
5.258065	0.300254	0.934406	0.000000	0.000000	0.000000	0.000000	35.177080	-1.661787	-46.540470	-9.220255	11.362796	10.880917	0.000000	0.000000
5.274194	0.302254	0.934470	0.000000	0.000000	0.000000	0.000000	34.845441	-1.925381	-45.885521	-8.985284	11.039449	10.909542	0.000000	0.000000
5.290323	0.304254	0.934535	0.000000	0.000000	0.000000	0.000000	34.513802	-2.188975	-45.230572	-8.750313	10.716102	10.938166	0.000000	0.000000
5.306452	0.306254	0.934599	0.000000	0.000000	0.000000	0.000000	34.182162	-2.452570	-44.575622	-8.515342	10.392755	10.966791	0.000000	0.000000
5.322581	0.308254	0.934664	0.000000	0.000000	0.000000	0.000000	33.850523	-2.716164	-43.920673	-8.280371	10.069408	10.995416	0.000000	0.000000
5.338710	0.310254	0.934728	0.000000	0.000000	0.000000	0.000000	33.518884	-2.979758	-43.265724	-8.045400	9.746061	11.024040	0.000000	0.000000
5.354839	0.312254	0.934793	0.000000	0.000000	0.000000	0.000000	33.187244	-3.243352	-42.610774	-7.810429	9.422714	11.052665	0.000000	0.000000
5.370968	0.314254	0.934857	0.000000	0.000000	0.000000	0.000000	32.855605	-3.506946	-41.955825	-7.575458	9.099367	11.081289	0.000000	0.000000
5.387097	0.316254	0.934922	0.000000	0.000000	0.000000	0.000000	32.523965	-3.770541	-41.300875	-7.340487	8.776020	11.109914	0.000000	0.000000
5.403226	0.318254	0.934986	0.000000	0.000000	0.000000	0.000000	32.192326	-4.034135	-40.645926	-7.105516	8.452673	11.138539	0.000000	0.000000
5.419355	0.320254	0.935051	0.000000	0.000000	0.000000	0.000000	31.860687	-4.297729	-39.990977	-6.870545	8.129325	11.167163	0.000000	0.000000
5.435484	0.322254	0.935115	0.000000	0.000000	0.000000	0.000000	31.529047	-4.561323	-39.336027	-6.635574	7.805978	11.195788	0.000000	0.000000
5.451613	0.324254	0.935180	0.000000	0.000000	0.000000	0.000000	31.197408	-4.824917	-38.681078	-6.400603	7.482631	11.224413	0.000000	0.000000
5.467742	0.326254	0.935244	0.000000	0.000000	0.000000	0.000000	30.865769	-5.088512	-38.026129	-6.165632	7.159284	11.253037	0.000000	0.000000
5.483871	0.328254	0.935309	0.000000	0.000000	0.000000	0.000000	30.534129	-5.352106	-37.371179	-5.930661	6.835937	11.281662	0.000000	0.000000
5.500000	0.330254	0.935373	0.000000	0.000000	0.000000	0.000000	30.202490	-5.615700	-36.716230	-5.695690	6.512590	11.310287	0.000000	0.000000
5.516129	0.332473	0.935083	0.000000	0.000000	0.000000	0.000000	29.934624	-5.879297	-36.291448	-5.525235	6.363215	11.403427	0.000000	0.000000
5.532258	0.334692	0.934793	0.000000	0.000000	0.000000	0.000000	29.666758	-6.142894	-35.866666	-5.354780	6.213840	11.496568	0.000000	0.000000
5.548387	0.336911	0.934502	0.000000	0.000000	0.000000	0.000000	29.398892	-6.406491	-35.441884	-5.184326	6.064465	11.589709	0.000000	0.000000
5.564516	0.339130	0.934212	0.000000	0.000000	0.000000	0.000000	29.131025	-6.670088	-35.017102	-5.013871	5.915089	11.682850	0.000000	0.000000
5.580645	0.341349	0.933922	0.000000	0.000000	0.000000	0.000000	28.863159	-6.933685	-34.592320	-4.843416	5.765714	11.775990	0.000000	0.000000
5.596774	0.343568	0.933631	0.000000	0.000000	0.000000	0.000000	28.595293	-7.197283	-34.167538	-4.672961	5.616339	11.869131	0.000000	0.000000
5.612903	0.345787	0.933341	0.000000	0.000000	0.000000	0.000000	28.327427	-7.460880	-33.742756	-4.502506	5.466964	11.962272	0.000000	0.000000
5.629032	0.348007	0.933051	0.000000	0.000000	0.000000	0.000000	28.059561	-7.724477	-33.317975	-4.332051	5.317589	12.055413	0.000000	0.000000
5.645161	0.350226	0.932760	0.000000	0.000000	0.000000	0.000000	27.791695	-7.988074	-32.893193	-4.161597	5.168214	12.148553	0.000000	0.000000
5.661290	0.352445	0.932470	0.000000	0.000000	0.000000	0.000000	27.523829	-8.251671	-32.468411	-3.991142	5.018838	12.241694	0.000000	0.000000
5.677419	0.354664	0.932180	0.000000	0.000000	0.000000	0.000000	27.255963	-8.515268	-32.043629	-3.820687	4.869463	12.334835	0.000000	0.000000
5.693548	0.356883	0.931890	0.000000	0.000000	0.000000	0.000000	26.988096	-8.778865	-31.618847	-3.650232	4.720088	12.427976	0.000000	0.000000
5.709677	0.359102	0.931599	0.000000	0.000000	0.000000	0.000000	26.720230	-9.042462	-31.194065	-3.479777	4.570713	12.521116	0.000000	0.000000
5.725806	0.361321	0.931309	0.000000	0.000000	0.000000	0.000000	26.452364	-9.306059	-30.769283	-3.309323	4.421338	12.614257	0.000000	0.000000
5.741935	0.363540	0.931019	0.000000	0.000000	0.000000	0.000000	26.184498	-9.569656	-30.344501	-3.138868	4.271963	12.707398	0.000000	0.000000
5.758065	0.365759	0.930728	0.000000	0.000000	0.000000	0.000000	25.916632	-9.833254	-29.919719	-2.968413	4.122587	12.800539	0.000000	0.000000
5.774194	0.367978	0.930438	0.000000	0.000000	0.000000	0.000000	25.648766	-10.096851	-29.494937	-2.797958	3.973212	12.893679	0.000000	0.000000
